<svg xmlns="http://www.w3.org/2000/svg" width="500" height="500" viewBox="0 0 500 500">
  <rect width="500" height="500" fill="#ffffff"/>
  <g transform="translate(90.00 90.00) scale(6.6667)">
  <path d="M8 0H40A8 8 0 0 1 48 8V40A8 8 0 0 1 40 48H8A8 8 0 0 1 0 40V8A8 8 0 0 1 8 0Z" fill="#ffd209" />
  <path d="M9 35V22A15 15 0 0 1 39 22V35Z" fill="#000000" />
  <circle cx="24" cy="24" r="3.2" fill="#ffd209" />
  <g fill="none" stroke="#000000" stroke-linecap="butt">
    <path d="M19.5 35L12 46.6M28.5 35L36 46.6" stroke-width="3" />
    <path d="M16 40H32M13 44.8H35" stroke-width="2.40" />
  </g></g>
</svg>
